HIERARCHY
ROOT root
{
	OFFSET 0.000000 0.000000 0.000000
	CHANNELS 6 Xposition Yposition Zposition Zrotation Yrotation Xrotation
	JOINT lhip
	{
		OFFSET 0.058581 -0.082280 -0.017664
		CHANNELS 3 Zrotation Yrotation Xrotation
		JOINT lknee
		{
			OFFSET 0.043451 -0.386469 0.008037
			CHANNELS 3 Zrotation Yrotation Xrotation
			JOINT lankle
			{
				OFFSET -0.014790 -0.426874 -0.037428
				CHANNELS 3 Zrotation Yrotation Xrotation
				JOINT ltoe
				{
					OFFSET 0.041054 -0.060286 0.122042
					CHANNELS 3 Zrotation Yrotation Xrotation
					End Site
					{
						OFFSET 0.000000 0.000000 0.000000
					}
				}
			}
		}
	}
	JOINT rhip
	{
		OFFSET -0.060310 -0.090513 -0.013543
		CHANNELS 3 Zrotation Yrotation Xrotation
		JOINT rknee
		{
			OFFSET -0.043257 -0.383688 -0.004843
			CHANNELS 3 Zrotation Yrotation Xrotation
			JOINT rankle
			{
				OFFSET 0.019056 -0.420046 -0.034562
				CHANNELS 3 Zrotation Yrotation Xrotation
				JOINT rtoe
				{
					OFFSET -0.034840 -0.062106 0.130323
					CHANNELS 3 Zrotation Yrotation Xrotation
					End Site
					{
						OFFSET 0.000000 0.000000 0.000000
					}
				}
			}
		}
	}
	JOINT lowerback
	{
		OFFSET 0.004439 0.124404 -0.038385
		CHANNELS 3 Zrotation Yrotation Xrotation
		JOINT upperback
		{
			OFFSET 0.004488 0.137956 0.026820
			CHANNELS 3 Zrotation Yrotation Xrotation
			JOINT chest
			{
				OFFSET -0.002265 0.056032 0.002855
				CHANNELS 3 Zrotation Yrotation Xrotation
				JOINT lowerneck
				{
					OFFSET -0.013390 0.211636 -0.033468
					CHANNELS 3 Zrotation Yrotation Xrotation
					JOINT upperneck
					{
						OFFSET 0.010113 0.088937 0.050410
						CHANNELS 3 Zrotation Yrotation Xrotation
						End Site
						{
							OFFSET 0.000000 0.000000 0.000000
						}
					}
				}
				JOINT lclavicle
				{
					OFFSET 0.071702 0.114000 -0.018898
					CHANNELS 3 Zrotation Yrotation Xrotation
					JOINT lshoulder
					{
						OFFSET 0.122921 0.045205 -0.019046
						CHANNELS 3 Zrotation Yrotation Xrotation
						JOINT lelbow
						{
							OFFSET 0.255332 -0.015649 -0.022946
							CHANNELS 3 Zrotation Yrotation Xrotation
							JOINT lwrist
							{
								OFFSET 0.265709 0.012698 -0.007375
								CHANNELS 3 Zrotation Yrotation Xrotation
								End Site
								{
									OFFSET 0.000000 0.000000 0.000000
								}
							}
						}
					}
				}
				JOINT rclavicle
				{
					OFFSET -0.082954 0.112472 -0.023707
					CHANNELS 3 Zrotation Yrotation Xrotation
					JOINT rshoulder
					{
						OFFSET -0.113228 0.046853 -0.008472
						CHANNELS 3 Zrotation Yrotation Xrotation
						JOINT relbow
						{
							OFFSET -0.260127 -0.014369 -0.031269
							CHANNELS 3 Zrotation Yrotation Xrotation
							JOINT rwrist
							{
								OFFSET -0.269108 0.006794 -0.006027
								CHANNELS 3 Zrotation Yrotation Xrotation
								End Site
								{
									OFFSET 0.000000 0.000000 0.000000
								}
							}
						}
					}
				}
			}
		}
	}
}
MOTION
Frames: 11
Frame Time: 0.033333
-0.125153 1.417364 1.004425 7.839209 -0.217476 87.276382 1.950356 5.334160 4.836604 -2.228107 -2.111474 -2.382375 3.581272 7.804072 -6.761635 0.000000 -0.000000 0.000000 -2.556525 -6.820932 6.183812 1.023695 -0.851446 -2.881748 3.462191 -3.602789 -5.011434 0.000000 -0.000000 0.000000 0.813986 1.155969 5.662737 1.803854 -9.903060 5.073008 -0.039289 -3.208831 -0.193341 -6.364934 0.526527 9.201472 7.454597 3.655346 -0.071321 -24.082227 -24.869378 2.143735 -54.164206 -30.729611 13.764007 13.545985 -29.561622 -1.884640 31.078465 2.851110 -11.165991 22.901956 11.675383 7.596454 57.555871 2.400330 12.012633 -21.191934 47.821754 -10.540646 -12.678365 3.971332 -18.963806 
-0.128266 1.412372 1.003649 7.007743 -0.213595 87.043014 2.305637 5.844190 5.396894 -2.358320 -1.940238 -2.418927 3.526361 7.961640 -6.979353 0.000000 -0.000000 0.000000 -2.485284 -6.744493 6.718218 1.155532 -0.312792 -3.238079 3.125512 -3.290228 -5.218997 0.000000 -0.000000 0.000000 0.752975 1.014233 5.568168 0.986730 -9.235679 5.581180 -0.899333 -2.899899 -0.414297 -4.974846 -0.311963 8.264243 7.809003 4.241895 -0.003022 -28.499412 -20.650521 4.888073 -54.863763 -23.887585 12.428425 12.932811 -27.790889 -1.548277 33.762088 2.955747 -10.088764 25.047221 10.796814 7.907458 58.763282 2.179094 12.493509 -17.152366 45.821691 -5.887970 -15.236711 4.866464 -16.211025 
-0.131115 1.408060 1.002900 5.936669 -0.154522 86.883073 2.644625 6.043850 6.018765 -2.432205 -1.824480 -2.544214 3.351941 8.772143 -7.370841 0.000000 -0.000000 0.000000 -2.372531 -6.362517 7.352967 1.358832 0.437356 -3.836281 2.848116 -3.393687 -5.313008 0.000000 -0.000000 0.000000 0.851089 1.041097 5.280775 0.018322 -8.005099 5.895318 -1.351067 -2.375113 -0.217551 -3.931239 -1.058056 7.852504 7.861102 4.052734 0.036722 -31.270802 -15.214416 5.439291 -55.522266 -16.972111 11.493329 13.327262 -26.042382 -2.419815 34.141294 1.670557 -8.377007 26.831713 9.068219 8.554809 59.570716 2.139570 13.368194 -15.130248 44.113192 -4.022904 -15.143867 4.804825 -13.496485 
-0.134316 1.405458 1.002427 4.839818 0.114467 87.553616 2.929247 5.630909 5.546245 -2.423908 -1.538922 -2.361630 3.459077 10.049654 -7.465292 0.000000 -0.000000 0.000000 -1.979144 -5.774619 6.735217 1.450931 1.173011 -3.940027 2.932067 -3.503020 -4.949003 0.000000 -0.000000 0.000000 1.065992 1.449742 4.352352 -0.331517 -6.154086 5.353846 -1.682713 -1.420794 0.828762 -3.201403 -1.999066 7.471148 7.646580 2.985225 0.077555 -32.110953 -8.122757 4.637300 -57.672659 -10.967914 9.488871 15.335430 -25.535468 -3.923740 32.756846 3.775077 -11.116986 27.786280 5.359283 8.263604 62.356660 1.048925 13.900279 -18.681388 44.578930 -2.618300 -13.132624 2.916482 -13.699799 
-0.136958 1.401112 1.002831 4.186523 0.299566 87.244124 3.131360 5.508089 6.323753 -2.417312 -1.052819 -2.622648 3.605079 10.568934 -8.024069 0.000000 -0.000000 0.000000 -1.796584 -5.499481 7.278897 1.667115 1.732786 -4.628517 3.054418 -3.186635 -4.729107 0.000000 -0.000000 0.000000 1.494634 1.885857 4.495061 -0.854662 -3.650656 4.347848 -2.061429 -0.368443 1.749060 -1.715957 -3.766262 6.920784 6.943534 1.812397 1.033648 -33.093317 -0.331529 2.674280 -56.552520 -7.347147 5.398118 16.377884 -23.033650 -11.314805 32.732434 3.184759 -10.133872 28.090243 2.189304 6.569877 62.980902 0.632821 14.655223 -15.266341 41.863636 -4.939088 -14.752601 4.059462 -8.848457 
-0.137794 1.397545 1.002734 3.764001 0.562523 87.732197 3.165183 4.982508 6.032424 -2.250872 -1.225865 -2.682759 3.729150 11.873543 -8.166215 0.000000 -0.000000 0.000000 -1.532636 -5.232913 6.830559 1.806612 2.539937 -4.783690 3.160341 -3.455457 -4.431831 0.000000 -0.000000 0.000000 1.870899 2.640355 3.610216 -0.705668 -1.234454 3.106725 -2.001590 1.073993 3.435766 -0.977602 -5.291331 6.996627 6.380959 -0.609769 1.246240 -31.533155 7.446271 0.100924 -55.890927 -4.262383 2.215193 17.867696 -22.360011 -14.634135 31.475085 4.781124 -12.957388 27.975338 -2.146397 5.002968 63.792930 0.035762 14.832001 -15.258232 40.764919 -4.618260 -15.068358 3.610719 -8.923592 
-0.137253 1.394612 1.002835 3.701429 0.718110 88.246682 3.011585 4.447574 5.690268 -2.012354 -1.735856 -2.788206 3.895659 13.070727 -8.194586 0.000000 -0.000000 0.000000 -1.463764 -4.996050 6.262111 1.955880 3.144370 -4.663852 3.399879 -3.789755 -4.189859 0.000000 -0.000000 0.000000 2.164597 3.457297 2.639201 -0.107640 1.056292 1.956833 -1.754300 2.709067 5.172136 -0.540808 -6.812628 7.606139 5.886724 -3.676421 1.291396 -28.865893 14.620973 -2.832595 -54.037344 -2.504700 -0.746052 19.405856 -21.774037 -16.780812 29.689409 6.531340 -15.705594 27.580215 -6.480518 3.303285 64.300830 -0.744715 14.561599 -15.888636 39.897755 -5.076574 -15.286908 3.232758 -9.349677 
-0.135172 1.391418 1.003420 3.860014 0.783736 88.592132 2.760989 4.007663 5.763024 -1.826659 -2.458483 -3.343649 4.024658 14.181125 -8.024264 0.000000 -0.000000 0.000000 -1.494478 -4.902762 5.898254 1.960137 3.583360 -4.520733 3.623864 -4.103112 -4.079296 0.000000 -0.000000 0.000000 2.575969 4.132175 1.814214 0.639880 3.169636 0.715137 -1.265518 4.343812 6.853942 -0.668373 -8.342240 8.976419 5.715047 -6.918836 1.244210 -25.703092 21.007645 -6.058205 -51.177564 -2.519491 -4.092048 21.754986 -21.442929 -20.252532 28.928717 8.611365 -18.204736 26.486133 -10.264622 1.443364 64.976292 -1.897468 14.070566 -16.539659 38.448437 -5.268006 -16.531268 2.909872 -9.071960 
-0.132263 1.389905 1.004597 4.366726 0.790797 88.976334 2.476595 3.218630 5.623847 -1.732449 -3.427097 -3.793876 4.174603 15.532003 -7.808069 0.000000 -0.000000 0.000000 -1.472794 -4.810271 5.503543 1.783029 3.688957 -4.299094 3.911798 -4.709037 -3.887206 0.000000 -0.000000 0.000000 3.182525 4.701113 1.354828 1.205226 4.833393 -0.748526 -0.509002 5.694614 8.148923 -1.288939 -9.416125 11.044608 5.715672 -10.342965 1.607008 -22.214586 25.787594 -9.281894 -47.664395 -3.038597 -6.914987 25.230231 -22.185152 -23.559671 24.795443 10.286148 -21.996237 24.770467 -13.240944 0.234741 67.183640 -2.681524 13.574434 -20.129264 35.295121 -6.451959 -15.025773 3.389273 -9.456020 
-0.129771 1.389760 1.006268 5.268956 0.598948 89.187605 2.043172 2.489619 5.642397 -1.753721 -4.111381 -4.315495 4.456336 16.194712 -7.537673 0.000000 -0.000000 0.000000 -1.629961 -5.082903 5.335121 1.506898 3.611176 -4.245576 4.282961 -5.124471 -3.607767 0.000000 -0.000000 0.000000 3.489398 5.327196 1.395113 1.965566 5.895879 -2.105551 0.224368 6.720511 8.898041 -2.318701 -10.523293 12.784927 5.831229 -13.193638 2.517981 -18.761969 28.228687 -12.340644 -42.560972 -5.194204 -10.661909 27.889818 -21.941304 -30.594405 24.334962 11.052585 -22.396717 23.278482 -15.047571 -0.860167 68.178145 -4.514916 12.502854 -22.318830 34.372046 -9.198129 -13.012360 3.021612 -7.041812 
-0.125655 1.393249 1.007772 6.430057 0.030246 90.585608 0.744651 0.141718 3.789197 -1.329468 -2.974371 -4.107756 3.517978 16.787125 -8.825957 0.000000 -0.000000 0.000000 -2.174233 -4.533823 3.507854 1.295702 1.942458 -3.753976 5.678026 -5.135598 -4.263883 0.000000 -0.000000 0.000000 3.714710 6.257703 0.117975 2.213854 5.819737 -3.319498 1.348801 7.548727 9.758959 -3.620904 -10.113755 15.999336 6.886276 -16.531677 0.955959 -15.102074 28.913588 -15.412222 -36.662068 -8.394755 -15.473232 29.591134 -20.629209 -40.634511 21.543907 7.180554 -17.980249 21.762716 -16.186433 -0.905295 68.341810 -5.356050 9.739816 -22.330200 34.186491 -9.862403 -14.495262 2.716703 -3.988321 
